<svg id="Capa_1" enable-background="new 0 0 511.785 511.785" height="512" viewBox="0 0 511.785 511.785" width="512" xmlns="http://www.w3.org/2000/svg"><path d="m439.504 14h-61c-9.214 0-17.07 5.838-20.123 14h-62.877v-20.5c0-4.142-3.358-7.5-7.5-7.5h-118c-4.142 0-7.5 3.358-7.5 7.5v36.236c0 19.996 16.268 36.264 36.264 36.264h8.07v13.497h-30.202c-11.27 0-20.438 9.168-20.438 20.438v6.777c0 10.651 8.193 19.414 18.606 20.345l-80.505 243.514h-6.365c-3.228 0-6.094 2.066-7.115 5.128l-28.921 86.762c-.762 2.287-.379 4.801 1.031 6.757s3.674 3.115 6.084 3.115h1.643l-5.156 15.598c-.755 2.286-.368 4.795 1.042 6.747s3.671 3.107 6.079 3.107h29.332c3.235 0 6.105-2.074 7.121-5.146l6.713-20.306h5.867c3.228 0 6.094-2.066 7.115-5.128l28.92-86.762c.762-2.287.379-4.801-1.031-6.757s-3.674-3.115-6.084-3.115h-1.144l18.255-55.217c3.036-9.186-11.205-13.894-14.242-4.708l-19.811 59.925h-13.533l80.328-242.976h13.533l-47.293 143.051c-3.036 9.186 11.204 13.893 14.242 4.708l35.93-108.68v202.743c0 .393.039.777.098 1.154h-4.252c-4.142 0-7.5 3.358-7.5 7.5v86.762c0 4.142 3.358 7.5 7.5 7.5h4.154v17.952c0 4.142 3.358 7.5 7.5 7.5h29.332c4.142 0 7.5-3.358 7.5-7.5v-17.952h4.154c4.142 0 7.5-3.358 7.5-7.5v-86.762c0-4.142-3.358-7.5-7.5-7.5h-4.161c.001-.048.007-.094.007-.142v-203.754l67.408 203.896h-1.144c-2.411 0-4.675 1.159-6.084 3.115-1.41 1.956-1.793 4.47-1.031 6.757l28.92 86.762c1.021 3.063 3.887 5.128 7.115 5.128h5.866l6.713 20.306c1.016 3.072 3.886 5.146 7.121 5.146h29.332c2.408 0 4.669-1.156 6.079-3.107s1.797-4.461 1.042-6.747l-5.157-15.598h1.643c2.411 0 4.675-1.159 6.084-3.115 1.41-1.956 1.793-4.47 1.031-6.757l-28.921-86.762c-1.021-3.063-3.887-5.128-7.115-5.128h-6.365l-57.5-173.925c-3.038-9.186-17.279-4.477-14.242 4.708l55.943 169.217h-13.533l-80.328-242.976h13.533l10.83 32.759c3.037 9.185 17.278 4.478 14.242-4.708l-9.451-28.589c10.413-.93 18.606-9.693 18.606-20.345v-6.777c0-11.27-9.168-20.438-20.438-20.438h-30.2v-13.497h8.07c19.996 0 36.264-16.268 36.264-36.264v-.736h62.877c3.053 8.162 10.909 14 20.123 14h61c27.665 0 27.716-43 0-43zm-346.164 385.571h36.829l-9.46 28.381h-36.829zm-6.807 97.214h-13.533l3.455-10.452h13.533zm19.715-25.452h-36.829l9.461-28.381h36.829zm236.052-28.381h36.829l9.461 28.381h-36.829zm42.709 53.833h-13.533l-3.456-10.452h13.533zm-10.88-68.833h-36.829l-9.46-28.381h36.829zm-126.304-28.381v28.381h-37.641v-28.381zm0 71.762h-37.641v-28.381h37.641zm-11.655 25.452h-14.332v-10.452h14.332zm-14.429-112.214c.058-.377.098-.76.098-1.154v-241.822h14.332v242.834c0 .048.006.094.007.142zm65.069-270.636v6.777c0 2.998-2.439 5.438-5.438 5.438h-104.735c-2.998 0-5.438-2.439-5.438-5.438v-6.777c0-2.998 2.439-5.438 5.438-5.438h104.735c2.998 0 5.438 2.44 5.438 5.438zm-64.972-20.438v-12.186h14.332v12.186zm37.403-28.497h-60.473c-11.725 0-21.264-9.539-21.264-21.264v-.736h14.5c9.674 0 9.674-15 0-15h-14.5v-13h103v13h-43.5c-9.674 0-9.674 15 0 15h43.5v.736c0 11.725-9.539 21.264-21.263 21.264zm180.263-23h-61c-8.131 0-8.503-13 0-13h61c8.132 0 8.504 13 0 13z"/></svg>